<svg width="194" height="194" viewBox="0 0 194 194" fill="none" xmlns="http://www.w3.org/2000/svg">
<g clip-path="url(#clip0_8_2)">
<rect width="194" height="194" rx="36" fill="white"/>
<path d="M70.155 43.141L98.018 38.653V67.638H131.491V90.826H98.018V125.421C98.018 131.28 99.0153 135.955 101.01 139.446C103.129 142.937 107.306 144.682 113.539 144.682C116.531 144.682 119.585 144.433 122.702 143.934C125.943 143.311 128.873 142.5 131.491 141.503L135.418 163.195C132.052 164.566 128.312 165.751 124.198 166.748C120.084 167.745 115.035 168.244 109.051 168.244C101.446 168.244 95.1507 167.247 90.164 165.252C85.1773 163.133 81.188 160.265 78.196 156.65C75.204 152.91 73.0847 148.422 71.838 143.186C70.716 137.95 70.155 132.153 70.155 125.795V43.141Z" fill="#F42243"/>
</g>
<defs>
<clipPath id="clip0_8_2">
<rect width="194" height="194" rx="36" fill="white"/>
</clipPath>
</defs>
</svg>
